<svg width="507" height="87" viewBox="0 0 507 87" fill="none" xmlns="http://www.w3.org/2000/svg">
<path d="M60.96 86.2H48.81L55.04 49.81H18.37L12.14 86.2H0L14.65 0.600037H26.8L20.49 37.46H57.16L63.47 0.600037H75.62L60.97 86.21L60.96 86.2Z" fill="white"/>
<path d="M124.72 86.2H112.44V68.47H84.79L75.79 86.2H63.5L102.58 9.23004C105.52 3.48004 108.86 0.600037 114.73 0.600037C117.54 0.600037 124.69 3.10004 124.69 9.34004L124.72 86.21V86.2ZM112.44 56.23V12.64L91.01 56.23H112.44Z" fill="white"/>
<path d="M350.05 86.32H333.93C329.15 79.64 324.39 72.92 319.63 66.16C312.01 55.16 308.4 48.51 308.79 46.23C309.81 40.26 314.62 37.27 323.21 37.27C324.46 37.27 326.37 37.31 328.93 37.39C331.49 37.47 333.36 37.51 334.53 37.51C341.95 37.51 346.07 35.12 346.89 30.35L348.5 20.96C348.9 18.61 348.56 16.7 347.49 15.21C346.42 13.73 344.71 12.98 342.37 12.98H313.9L301.35 86.32H289.2L303.87 0.600037H346.38C351.6 0.600037 355.57 2.27004 358.31 5.61004C361.05 8.95004 361.97 13.22 361.08 18.4L358.54 33.26C357.19 41.12 352.79 46.15 345.33 48.35C341.88 49.37 335.22 49.88 325.33 49.88L350.05 86.32Z" fill="white"/>
<path d="M364.59 86.32H352.44L367.11 0.600037H379.26L364.59 86.33V86.32Z" fill="white"/>
<path d="M440.77 12.97H407.02C401.1 12.97 397.63 16 396.59 22.04L389.29 64.7C388.86 67.22 389.35 69.38 390.75 71.18C392.15 72.99 394.1 73.89 396.59 73.89H430.11L427.99 86.26H391.9C386.45 86.26 382.34 84.14 379.56 79.9C376.9 75.89 376.04 71.14 376.98 65.64L384.5 21.68C385.55 15.55 388.12 10.5 392.23 6.54003C396.33 2.57003 401.42 0.590027 407.5 0.590027H442.89L440.77 12.96V12.97Z" fill="white"/>
<path d="M447.41 0.780029L432.78 86.27H444.93L459.56 0.780029H447.41Z" fill="white"/>
<path d="M494.21 86.27L478.34 86.14C473.88 79.49 469.4 72.87 464.92 66.3C456.65 53.23 452.8 45 453.38 41.64C453.8 39.21 459.84 32.05 471.53 20.15C478.16 13.73 484.75 7.27002 491.32 0.77002H506.97L466.47 42.22L494.21 86.26V86.27Z" fill="white"/>
<path d="M141.05 41.52L139.09 52.38H154.23L156.18 41.52H141.05Z" fill="#4BAA50"/>
<path d="M136.89 65.9101H152.03L153.98 55.05H138.85L136.89 65.9101Z" fill="#4BAA50"/>
<path d="M158.12 28.04H142.99L141.03 38.9H156.17L158.12 28.04Z" fill="#4BAA50"/>
<path d="M159.02 41.52L157.06 52.38H172.2L174.16 41.52H159.02Z" fill="#4BAA50"/>
<path d="M176.63 41.52L174.68 52.38H189.82L191.77 41.52H176.63Z" fill="#4BAA50"/>
<path d="M172.48 65.9101H187.62L189.57 55.05H174.43L172.48 65.9101Z" fill="#4BAA50"/>
<path d="M193.71 28.04H178.57L176.62 38.9H191.76L193.71 28.04Z" fill="#4BAA50"/>
<path d="M194.61 41.52L192.65 52.38H207.79L209.74 41.52H194.61Z" fill="#4BAA50"/>
<path d="M190.45 65.9101H205.59L207.54 55.05H192.4L190.45 65.9101Z" fill="#4BAA50"/>
<path d="M211.68 28.04H196.54L194.59 38.9H209.73L211.68 28.04Z" fill="#4BAA50"/>
<path d="M212.71 41.52L210.76 52.38H225.89L227.85 41.52H212.71Z" fill="#4BAA50"/>
<path d="M208.55 65.9101H223.69L225.65 55.05H210.51L208.55 65.9101Z" fill="#4BAA50"/>
<path d="M229.79 28.04H214.65L212.69 38.9H227.83L229.79 28.04Z" fill="#4BAA50"/>
<path d="M230.68 41.52L228.73 52.38H243.86L245.82 41.52H230.68Z" fill="#4BAA50"/>
<path d="M226.52 65.9101H241.66L243.62 55.05H228.48L226.52 65.9101Z" fill="#4BAA50"/>
<path d="M247.76 28.04H232.62L230.67 38.9H245.8L247.76 28.04Z" fill="#4BAA50"/>
<path d="M248.3 41.52L246.34 52.38H261.48L263.44 41.52H248.3Z" fill="#4BAA50"/>
<path d="M264.31 52.38H279.45L281.41 41.52H266.27L264.31 52.38Z" fill="#4BAA50"/>
<path d="M262.11 65.9101H277.25L279.2 55.05H264.07L262.11 65.9101Z" fill="#4BAA50"/>
<path d="M283.34 28.04H268.21L266.25 38.9H281.39L283.34 28.04Z" fill="#4BAA50"/>
<path d="M161.14 55.16L161.21 55.11H161.15L161.14 55.16Z" fill="#4BAA50"/>
<path d="M160.21 42.64L165.33 48.64L172.58 42.68L177.24 16.97L172.12 10.95L164.87 16.89L160.21 42.64Z" fill="white"/>
<path d="M153.39 80.3L158.52 86.3L165.77 80.34L170.42 54.63L165.3 48.61L158.05 54.55L153.39 80.3Z" fill="white"/>
<path d="M199.76 0.600037L197.58 12.64H177.9L172.88 6.74004L165.67 12.64H146.63L148.81 0.600037H199.76Z" fill="#4BAA50"/>
<path d="M249.51 42.64L254.63 48.64L261.88 42.68L266.54 16.97L261.42 10.95L254.17 16.89L249.51 42.64Z" fill="white"/>
<path d="M242.69 80.3L247.82 86.3L255.07 80.34L259.72 54.63L254.6 48.61L247.35 54.55L242.69 80.3Z" fill="white"/>
<path d="M289.06 0.600037L286.88 12.64H267.2L262.18 6.74004L254.97 12.64H235.93L238.11 0.600037H289.06Z" fill="#4BAA50"/>
<path d="M210.24 72.22C223.926 72.22 235.02 61.0943 235.02 47.37C235.02 33.6457 223.926 22.52 210.24 22.52C196.554 22.52 185.46 33.6457 185.46 47.37C185.46 61.0943 196.554 72.22 210.24 72.22Z" fill="#F6F6F6"/>
<path d="M199.08 25.15L195.66 34.33L187.5 37.27C189.84 32.02 193.95 27.72 199.07 25.15H199.08Z" fill="#4BAA50"/>
<path d="M217.1 29.07L212.38 39.6L202.44 41.57L195.66 34.34L199.08 25.16C202.43 23.48 206.21 22.53 210.22 22.53L217.11 29.08L217.1 29.07Z" fill="white"/>
<path d="M202.43 41.58L195.64 34.34L199.06 25.15C200.75 24.3 202.55 23.64 204.39 23.2C206.28 22.75 208.24 22.52 210.21 22.52L217.11 29.07L212.38 39.62L202.43 41.59V41.58ZM195.67 34.33L202.44 41.55L212.37 39.58L217.09 29.06L210.21 22.52C206.3 22.52 202.56 23.4 199.09 25.15L195.68 34.32L195.67 34.33Z" fill="#4BAA50"/>
<path d="M227.02 29.07H217.1L210.21 22.52C216.69 22.52 222.59 25 227.02 29.07Z" fill="#4BAA50"/>
<path d="M233.82 39.51L229.66 47.31H218.58L212.33 39.51L217.07 28.95H227.01C230.11 31.8 232.49 35.42 233.83 39.51H233.82Z" fill="white"/>
<path d="M229.68 47.39H218.61L212.37 39.6L217.1 29.05H227.03C230.16 31.93 232.52 35.57 233.84 39.59L229.68 47.37V47.39ZM218.62 47.36H229.66L233.81 39.6C232.49 35.59 230.14 31.95 227.01 29.08H217.11L212.39 39.6L218.62 47.36Z" fill="black"/>
<path d="M235.07 47.37C235.07 50.56 234.47 53.62 233.37 56.42L229.68 47.37L233.83 39.59C234.64 42.04 235.07 44.65 235.07 47.37Z" fill="#4BAA50"/>
<path d="M233.36 56.43C231.66 60.78 228.77 64.53 225.08 67.29L214.64 65.49L212.38 56.44L218.62 47.39H229.67L233.36 56.44V56.43Z" fill="white"/>
<path d="M225.09 67.3L214.64 65.5L212.37 56.43L218.61 47.36H229.68L233.37 56.43C231.68 60.75 228.82 64.51 225.09 67.3ZM214.65 65.48L225.08 67.28C228.8 64.5 231.66 60.75 233.35 56.44L229.66 47.4H218.62L212.39 56.44L214.65 65.48Z" fill="#4BAA50"/>
<path d="M202.44 41.57L200.47 52L193.09 57.02L185.95 52.77C185.57 51.03 185.36 49.23 185.36 47.37C185.36 43.77 186.12 40.35 187.5 37.27L195.66 34.33L202.44 41.56V41.57Z" fill="white"/>
<path d="M193.09 57.03L185.95 52.77C185.56 51 185.36 49.19 185.36 47.37C185.36 43.85 186.08 40.45 187.5 37.26L195.66 34.32L202.45 41.56L200.48 52L193.09 57.03ZM185.96 52.76L193.09 57L200.46 51.99L202.43 41.57L195.66 34.35L187.52 37.28C186.1 40.46 185.38 43.86 185.38 47.37C185.38 49.19 185.58 51 185.97 52.76H185.96Z" fill="#4BAA50"/>
<path d="M193.69 65.93C189.86 62.52 187.1 57.95 185.95 52.76L193.09 57.01L193.69 65.93Z" fill="#4BAA50"/>
<path d="M206.38 71.94C201.66 71.21 197.27 69.13 193.68 65.94L193.08 57.02L200.47 51.99L212.39 56.42L214.66 65.49L206.39 71.95L206.38 71.94ZM193.7 65.92C197.28 69.11 201.66 71.18 206.37 71.91L214.62 65.47L212.36 56.43L200.46 52.01L193.09 57.02L193.69 65.92H193.7Z" fill="#4BAA50"/>
<path d="M225.09 67.29C220.94 70.39 215.79 72.23 210.22 72.23C208.91 72.23 207.63 72.13 206.38 71.93L214.65 65.48L225.09 67.28V67.29Z" fill="#4BAA50"/>
<path d="M218.62 47.37L212.38 56.43L200.47 52L202.44 41.57L212.38 39.6L218.62 47.37Z" fill="#4BAA50"/>
<path style="mix-blend-mode:darken" d="M210.23 72.23C223.932 72.23 235.04 61.1222 235.04 47.42C235.04 33.7179 223.932 22.61 210.23 22.61C196.528 22.61 185.42 33.7179 185.42 47.42C185.42 61.1222 196.528 72.23 210.23 72.23Z" fill="url(#paint0_linear_345_3)"/>
<path style="mix-blend-mode:darken" d="M210.23 72.23C223.932 72.23 235.04 61.1222 235.04 47.42C235.04 33.7179 223.932 22.61 210.23 22.61C196.528 22.61 185.42 33.7179 185.42 47.42C185.42 61.1222 196.528 72.23 210.23 72.23Z" fill="url(#paint1_linear_345_3)"/>
<defs>
<linearGradient id="paint0_linear_345_3" x1="213.189" y1="22.789" x2="207.272" y2="72.0448" gradientUnits="userSpaceOnUse">
<stop stop-color="white" stop-opacity="0"/>
<stop offset="0.16" stop-color="#FAFDFB" stop-opacity="0.02"/>
<stop offset="0.31" stop-color="#EEF7EF" stop-opacity="0.09"/>
<stop offset="0.46" stop-color="#D9EDDA" stop-opacity="0.21"/>
<stop offset="0.61" stop-color="#BCDFBE" stop-opacity="0.37"/>
<stop offset="0.76" stop-color="#97CE9A" stop-opacity="0.58"/>
<stop offset="0.91" stop-color="#6AB86E" stop-opacity="0.83"/>
<stop offset="1" stop-color="#4BAA50"/>
</linearGradient>
<linearGradient id="paint1_linear_345_3" x1="213.189" y1="22.789" x2="207.272" y2="72.0448" gradientUnits="userSpaceOnUse">
<stop stop-color="white" stop-opacity="0"/>
<stop offset="0.89" stop-color="#3F3F3F" stop-opacity="0.75"/>
<stop offset="1"/>
</linearGradient>
</defs>
</svg>
