<svg width="403" height="600" viewBox="0 0 403 600" fill="none" xmlns="http://www.w3.org/2000/svg">
<path d="M199.151 64.7484C199.151 65.2207 199.289 65.6824 199.549 66.0751C199.809 66.4679 200.178 66.7739 200.61 66.9547C201.042 67.1355 201.517 67.1827 201.976 67.0906C202.434 66.9984 202.855 66.771 203.186 66.437C203.517 66.103 203.742 65.6775 203.833 65.2143C203.924 64.751 203.877 64.2709 203.698 63.8345C203.519 63.3981 203.216 63.0251 202.828 62.7627C202.439 62.5003 201.982 62.3603 201.515 62.3603C200.888 62.3603 200.286 62.6119 199.843 63.0597C199.4 63.5076 199.151 64.115 199.151 64.7484Z" fill="#DEDEDE" fill-opacity="0.25"/>
<path d="M203.878 535.287C203.878 534.815 203.74 534.353 203.48 533.961C203.22 533.568 202.851 533.262 202.419 533.081C201.987 532.9 201.512 532.853 201.053 532.945C200.595 533.037 200.174 533.265 199.843 533.599C199.513 533.933 199.287 534.358 199.196 534.822C199.105 535.285 199.152 535.765 199.331 536.201C199.51 536.638 199.813 537.011 200.201 537.273C200.59 537.535 201.047 537.676 201.515 537.676C202.141 537.676 202.743 537.424 203.186 536.976C203.629 536.528 203.878 535.921 203.878 535.287Z" fill="#DEDEDE" fill-opacity="0.25"/>
<path d="M0.300903 599.234H402.728L402.728 0.663086H0.300903L0.300903 599.234ZM253.029 566.136H149.98V593.313H92.2145V507.104H311.147V593.313H253.029V566.136ZM251.076 593.313H151.914V568.07H251.115L251.076 593.313ZM163.342 503.156C168.132 497.706 174.01 493.344 180.59 490.356C187.169 487.369 194.301 485.824 201.514 485.824C208.728 485.824 215.86 487.369 222.439 490.356C229.019 493.344 234.897 497.706 239.686 503.156H163.342ZM315.542 503.156H242.207C237.234 497.128 231.011 492.277 223.978 488.949C216.944 485.62 209.272 483.895 201.505 483.895C193.738 483.895 186.066 485.62 179.032 488.949C171.998 492.277 165.775 497.128 160.803 503.156H88.327V593.313H19.2892C18.6215 590.25 17.017 587.478 14.703 585.388C12.389 583.298 9.48271 581.997 6.39592 581.668L6.39592 301.409H147.831C148.148 311.939 151.506 322.146 157.493 330.771C163.479 339.397 171.832 346.065 181.523 349.955C191.213 353.844 201.819 354.785 212.032 352.661C222.245 350.537 231.62 345.441 239.003 338.001C248.685 328.266 254.241 315.109 254.494 301.31H396.555V581.57C393.479 581.91 390.585 583.216 388.283 585.305C385.98 587.394 384.385 590.161 383.72 593.214H315.542V503.156ZM17.1403 6.58405C16.5144 9.09033 15.1536 11.3472 13.2364 13.0588C11.3191 14.7704 8.93485 15.8569 6.39592 16.176L6.39592 6.58405H17.1403ZM200.909 250.469C213.702 250.484 225.987 255.529 235.161 264.537C244.335 273.544 249.679 285.806 250.06 298.725H203.488C203.274 298.399 202.983 298.132 202.643 297.947C202.302 297.762 201.921 297.666 201.534 297.666C201.147 297.666 200.766 297.762 200.425 297.947C200.085 298.132 199.794 298.399 199.58 298.725H151.739C152.124 285.804 157.472 273.542 166.65 264.535C175.827 255.528 188.114 250.484 200.909 250.469ZM199.541 301.31C199.755 301.636 200.046 301.903 200.386 302.088C200.727 302.273 201.108 302.37 201.495 302.37C201.882 302.37 202.263 302.273 202.603 302.088C202.944 301.903 203.235 301.636 203.448 301.31H250.04C249.679 314.243 244.341 326.524 235.159 335.542C225.977 344.561 213.676 349.607 200.87 349.607C188.064 349.607 175.763 344.561 166.581 335.542C157.399 326.524 152.06 314.243 151.699 301.31H199.541ZM6.39592 583.839C8.90133 584.171 11.2521 585.25 13.1484 586.937C15.0446 588.624 16.4004 590.844 17.0427 593.313H6.39592L6.39592 583.839ZM385.869 593.313C386.511 590.844 387.867 588.624 389.763 586.937C391.66 585.25 394.01 584.171 396.516 583.839V593.313H385.869ZM396.516 16.176C393.987 15.8457 391.616 14.7542 389.71 13.0435C387.804 11.3326 386.452 9.08191 385.83 6.58405H396.516V16.176ZM396.516 18.3668L396.516 298.626H254.494C254.331 291.202 252.64 283.894 249.527 277.168C246.414 270.441 241.949 264.443 236.415 259.556C230.882 254.669 224.401 251 217.386 248.783C210.372 246.566 202.977 245.85 195.673 246.679C182.809 247.98 170.853 253.971 162.044 263.532C153.235 273.093 148.175 285.569 147.812 298.626H6.39592L6.39592 18.3668C9.50359 18.0165 12.4221 16.6827 14.7343 14.5558C17.0465 12.429 18.6339 9.61804 19.2697 6.52484H88.327L88.327 96.4249H160.432C165.402 102.586 171.667 107.552 178.773 110.962C185.879 114.373 193.647 116.142 201.514 116.142C209.381 116.142 217.15 114.373 224.256 110.962C231.362 107.552 237.627 102.586 242.597 96.4249H315.542V6.58405H383.701C384.35 9.66504 385.943 12.4612 388.254 14.576C390.565 16.691 393.476 18.0173 396.574 18.3668H396.516ZM251.056 6.52484V31.9456H151.914V6.58405L251.056 6.52484ZM149.98 33.8995H253.029V6.58405H311.147V92.4776H92.3512L92.3512 6.58405H149.98V33.8995ZM240.077 96.4249C235.282 102.001 229.358 106.472 222.705 109.536C216.052 112.6 208.826 114.186 201.514 114.186C194.203 114.186 186.977 112.6 180.324 109.536C173.671 106.472 167.747 102.001 162.952 96.4249H240.077Z" fill="#DEDEDE" fill-opacity="0.25"/>
<path d="M200.772 531.952C201.672 531.952 202.552 532.222 203.301 532.727C204.05 533.232 204.633 533.95 204.977 534.791C205.322 535.631 205.412 536.556 205.236 537.448C205.061 538.34 204.627 539.159 203.991 539.802C203.354 540.445 202.543 540.883 201.66 541.061C200.777 541.238 199.862 541.147 199.03 540.799C198.199 540.451 197.488 539.862 196.988 539.105C196.487 538.349 196.22 537.46 196.22 536.551C196.22 535.331 196.7 534.161 197.554 533.299C198.407 532.436 199.565 531.952 200.772 531.952Z" fill="#DEDEDE" fill-opacity="0.25"/>
<path d="M200.772 295.113C201.672 295.113 202.552 295.383 203.301 295.888C204.05 296.393 204.633 297.112 204.977 297.952C205.322 298.792 205.412 299.717 205.236 300.609C205.061 301.501 204.627 302.32 203.991 302.963C203.354 303.607 202.543 304.045 201.66 304.222C200.777 304.399 199.862 304.308 199.03 303.96C198.199 303.612 197.488 303.023 196.988 302.267C196.487 301.51 196.22 300.621 196.22 299.712C196.22 298.492 196.7 297.322 197.554 296.46C198.407 295.598 199.565 295.113 200.772 295.113Z" fill="#DEDEDE" fill-opacity="0.25"/>
<path d="M200.772 60.2473C201.672 60.2473 202.552 60.517 203.301 61.0223C204.05 61.5276 204.633 62.2459 204.977 63.0861C205.322 63.9264 205.412 64.851 205.236 65.7431C205.061 66.6351 204.627 67.4546 203.991 68.0977C203.354 68.7408 202.543 69.1788 201.66 69.3562C200.777 69.5337 199.862 69.4426 199.03 69.0945C198.199 68.7465 197.488 68.1571 196.988 67.4008C196.487 66.6446 196.22 65.7554 196.22 64.8459C196.22 63.6263 196.7 62.4566 197.554 61.5942C198.407 60.7318 199.565 60.2473 200.772 60.2473Z" fill="#DEDEDE" fill-opacity="0.25"/>
</svg>
