<svg width="18" height="18" viewBox="0 0 18 18" fill="none" xmlns="http://www.w3.org/2000/svg">
<path fill-rule="evenodd" clip-rule="evenodd" d="M16.875 8.99998C16.875 8.85079 16.8157 8.70772 16.7102 8.60223C16.6048 8.49674 16.4617 8.43748 16.3125 8.43748H3.04537L6.58575 4.89823C6.69137 4.79261 6.75071 4.64935 6.75071 4.49998C6.75071 4.35061 6.69137 4.20735 6.58575 4.10173C6.48013 3.99611 6.33687 3.93677 6.1875 3.93677C6.03813 3.93677 5.89487 3.99611 5.78925 4.10173L1.28925 8.60173C1.23687 8.65398 1.1953 8.71605 1.16695 8.78439C1.13859 8.85273 1.12399 8.92599 1.12399 8.99998C1.12399 9.07397 1.13859 9.14723 1.16695 9.21557C1.1953 9.2839 1.23687 9.34598 1.28925 9.39823L5.78925 13.8982C5.89487 14.0038 6.03813 14.0632 6.1875 14.0632C6.33687 14.0632 6.48013 14.0038 6.58575 13.8982C6.69137 13.7926 6.75071 13.6494 6.75071 13.5C6.75071 13.3506 6.69137 13.2073 6.58575 13.1017L3.04537 9.56248H16.3125C16.4617 9.56248 16.6048 9.50321 16.7102 9.39773C16.8157 9.29224 16.875 9.14916 16.875 8.99998Z" fill="black"/>
</svg>
